<svg width="129" height="38" viewBox="0 0 82 21" fill="none" xmlns="http://www.w3.org/2000/svg">
<g filter="url(#filter0_d_29_11)">
<mask id="path-1-outside-1_29_11" maskUnits="userSpaceOnUse" x="2" y="-1" width="78" height="15" fill="black">
<rect fill="white" x="2" y="-1" width="78" height="15"/>
<path d="M7.01705 12H4.38068L8.39773 0.363636H11.5682L15.5795 12H12.9432L10.0284 3.02273H9.9375L7.01705 12ZM6.85227 7.42614H13.0795V9.34659H6.85227V7.42614ZM16.9801 12V0.363636H21.571C22.4498 0.363636 23.1998 0.520833 23.821 0.835227C24.446 1.14583 24.9214 1.58712 25.2472 2.15909C25.5767 2.72727 25.7415 3.39583 25.7415 4.16477C25.7415 4.9375 25.5748 5.60227 25.2415 6.15909C24.9081 6.71212 24.4252 7.13636 23.7926 7.43182C23.1638 7.72727 22.4025 7.875 21.5085 7.875H18.4347V5.89773H21.1108C21.5805 5.89773 21.9706 5.83333 22.2812 5.70455C22.5919 5.57576 22.8229 5.38258 22.9744 5.125C23.1297 4.86742 23.2074 4.54735 23.2074 4.16477C23.2074 3.77841 23.1297 3.45265 22.9744 3.1875C22.8229 2.92235 22.59 2.72159 22.2756 2.58523C21.965 2.44508 21.5729 2.375 21.0994 2.375H19.4403V12H16.9801ZM23.2642 6.70455L26.1562 12H23.4403L20.6108 6.70455H23.2642ZM37.7472 4.4375H35.2585C35.2131 4.11553 35.1203 3.82955 34.9801 3.57955C34.84 3.32576 34.66 3.10985 34.4403 2.93182C34.2206 2.75379 33.9669 2.61742 33.679 2.52273C33.3949 2.42803 33.0862 2.38068 32.7528 2.38068C32.1506 2.38068 31.6259 2.5303 31.179 2.82955C30.732 3.125 30.3854 3.55682 30.1392 4.125C29.893 4.68939 29.7699 5.375 29.7699 6.18182C29.7699 7.01136 29.893 7.70833 30.1392 8.27273C30.3892 8.83712 30.7377 9.26326 31.1847 9.55114C31.6316 9.83902 32.1487 9.98295 32.7358 9.98295C33.0653 9.98295 33.3703 9.93939 33.6506 9.85227C33.9347 9.76515 34.1866 9.63826 34.4062 9.47159C34.6259 9.30114 34.8078 9.0947 34.9517 8.85227C35.0994 8.60985 35.2017 8.33333 35.2585 8.02273L37.7472 8.03409C37.6828 8.56818 37.5218 9.08333 37.2642 9.57955C37.0104 10.072 36.6676 10.5133 36.2358 10.9034C35.8078 11.2898 35.2964 11.5966 34.7017 11.8239C34.1108 12.0473 33.4422 12.1591 32.696 12.1591C31.6581 12.1591 30.7301 11.9242 29.9119 11.4545C29.0975 10.9848 28.4536 10.3049 27.9801 9.41477C27.5104 8.52462 27.2756 7.44697 27.2756 6.18182C27.2756 4.91288 27.5142 3.83333 27.9915 2.94318C28.4688 2.05303 29.1165 1.375 29.9347 0.909091C30.7528 0.439394 31.6733 0.204545 32.696 0.204545C33.3703 0.204545 33.9953 0.299242 34.571 0.488636C35.1506 0.67803 35.6638 0.954545 36.1108 1.31818C36.5578 1.67803 36.9214 2.11932 37.2017 2.64205C37.4858 3.16477 37.6676 3.76326 37.7472 4.4375ZM41.2983 12H38.6619L42.679 0.363636H45.8494L49.8608 12H47.2244L44.3097 3.02273H44.2188L41.2983 12ZM41.1335 7.42614H47.3608V9.34659H41.1335V7.42614ZM55.3864 12H51.2614V0.363636H55.4205C56.5909 0.363636 57.5985 0.596591 58.4432 1.0625C59.2879 1.52462 59.9375 2.18939 60.392 3.05682C60.8504 3.92424 61.0795 4.96212 61.0795 6.17045C61.0795 7.38258 60.8504 8.42424 60.392 9.29545C59.9375 10.1667 59.2841 10.8352 58.4318 11.3011C57.5833 11.767 56.5682 12 55.3864 12ZM53.7216 9.89205H55.2841C56.0114 9.89205 56.6231 9.76326 57.1193 9.50568C57.6193 9.24432 57.9943 8.84091 58.2443 8.29545C58.4981 7.74621 58.625 7.03788 58.625 6.17045C58.625 5.31061 58.4981 4.60795 58.2443 4.0625C57.9943 3.51705 57.6212 3.11553 57.125 2.85795C56.6288 2.60038 56.017 2.47159 55.2898 2.47159H53.7216V9.89205ZM65.3622 0.363636V12H62.902V0.363636H65.3622ZM69.392 12H66.7557L70.7727 0.363636H73.9432L77.9545 12H75.3182L72.4034 3.02273H72.3125L69.392 12ZM69.2273 7.42614H75.4545V9.34659H69.2273V7.42614Z"/>
</mask>
<path d="M7.01705 12H4.38068L8.39773 0.363636H11.5682L15.5795 12H12.9432L10.0284 3.02273H9.9375L7.01705 12ZM6.85227 7.42614H13.0795V9.34659H6.85227V7.42614ZM16.9801 12V0.363636H21.571C22.4498 0.363636 23.1998 0.520833 23.821 0.835227C24.446 1.14583 24.9214 1.58712 25.2472 2.15909C25.5767 2.72727 25.7415 3.39583 25.7415 4.16477C25.7415 4.9375 25.5748 5.60227 25.2415 6.15909C24.9081 6.71212 24.4252 7.13636 23.7926 7.43182C23.1638 7.72727 22.4025 7.875 21.5085 7.875H18.4347V5.89773H21.1108C21.5805 5.89773 21.9706 5.83333 22.2812 5.70455C22.5919 5.57576 22.8229 5.38258 22.9744 5.125C23.1297 4.86742 23.2074 4.54735 23.2074 4.16477C23.2074 3.77841 23.1297 3.45265 22.9744 3.1875C22.8229 2.92235 22.59 2.72159 22.2756 2.58523C21.965 2.44508 21.5729 2.375 21.0994 2.375H19.4403V12H16.9801ZM23.2642 6.70455L26.1562 12H23.4403L20.6108 6.70455H23.2642ZM37.7472 4.4375H35.2585C35.2131 4.11553 35.1203 3.82955 34.9801 3.57955C34.84 3.32576 34.66 3.10985 34.4403 2.93182C34.2206 2.75379 33.9669 2.61742 33.679 2.52273C33.3949 2.42803 33.0862 2.38068 32.7528 2.38068C32.1506 2.38068 31.6259 2.5303 31.179 2.82955C30.732 3.125 30.3854 3.55682 30.1392 4.125C29.893 4.68939 29.7699 5.375 29.7699 6.18182C29.7699 7.01136 29.893 7.70833 30.1392 8.27273C30.3892 8.83712 30.7377 9.26326 31.1847 9.55114C31.6316 9.83902 32.1487 9.98295 32.7358 9.98295C33.0653 9.98295 33.3703 9.93939 33.6506 9.85227C33.9347 9.76515 34.1866 9.63826 34.4062 9.47159C34.6259 9.30114 34.8078 9.0947 34.9517 8.85227C35.0994 8.60985 35.2017 8.33333 35.2585 8.02273L37.7472 8.03409C37.6828 8.56818 37.5218 9.08333 37.2642 9.57955C37.0104 10.072 36.6676 10.5133 36.2358 10.9034C35.8078 11.2898 35.2964 11.5966 34.7017 11.8239C34.1108 12.0473 33.4422 12.1591 32.696 12.1591C31.6581 12.1591 30.7301 11.9242 29.9119 11.4545C29.0975 10.9848 28.4536 10.3049 27.9801 9.41477C27.5104 8.52462 27.2756 7.44697 27.2756 6.18182C27.2756 4.91288 27.5142 3.83333 27.9915 2.94318C28.4688 2.05303 29.1165 1.375 29.9347 0.909091C30.7528 0.439394 31.6733 0.204545 32.696 0.204545C33.3703 0.204545 33.9953 0.299242 34.571 0.488636C35.1506 0.67803 35.6638 0.954545 36.1108 1.31818C36.5578 1.67803 36.9214 2.11932 37.2017 2.64205C37.4858 3.16477 37.6676 3.76326 37.7472 4.4375ZM41.2983 12H38.6619L42.679 0.363636H45.8494L49.8608 12H47.2244L44.3097 3.02273H44.2188L41.2983 12ZM41.1335 7.42614H47.3608V9.34659H41.1335V7.42614ZM55.3864 12H51.2614V0.363636H55.4205C56.5909 0.363636 57.5985 0.596591 58.4432 1.0625C59.2879 1.52462 59.9375 2.18939 60.392 3.05682C60.8504 3.92424 61.0795 4.96212 61.0795 6.17045C61.0795 7.38258 60.8504 8.42424 60.392 9.29545C59.9375 10.1667 59.2841 10.8352 58.4318 11.3011C57.5833 11.767 56.5682 12 55.3864 12ZM53.7216 9.89205H55.2841C56.0114 9.89205 56.6231 9.76326 57.1193 9.50568C57.6193 9.24432 57.9943 8.84091 58.2443 8.29545C58.4981 7.74621 58.625 7.03788 58.625 6.17045C58.625 5.31061 58.4981 4.60795 58.2443 4.0625C57.9943 3.51705 57.6212 3.11553 57.125 2.85795C56.6288 2.60038 56.017 2.47159 55.2898 2.47159H53.7216V9.89205ZM65.3622 0.363636V12H62.902V0.363636H65.3622ZM69.392 12H66.7557L70.7727 0.363636H73.9432L77.9545 12H75.3182L72.4034 3.02273H72.3125L69.392 12ZM69.2273 7.42614H75.4545V9.34659H69.2273V7.42614Z" fill="url(#paint0_linear_29_11)" shape-rendering="crispEdges"/>
<path d="M7.01705 12V13H7.74331L7.96799 12.3094L7.01705 12ZM4.38068 12L3.43542 11.6737L2.97756 13H4.38068V12ZM8.39773 0.363636V-0.636364H7.68503L7.45247 0.0373182L8.39773 0.363636ZM11.5682 0.363636L12.5136 0.0377307L12.2812 -0.636364H11.5682V0.363636ZM15.5795 12V13H16.982L16.5249 11.6741L15.5795 12ZM12.9432 12L11.9921 12.3088L12.2165 13H12.9432V12ZM10.0284 3.02273L10.9795 2.71391L10.7551 2.02273H10.0284V3.02273ZM9.9375 3.02273V2.02273H9.21123L8.98655 2.71337L9.9375 3.02273ZM6.85227 7.42614V6.42614H5.85227V7.42614H6.85227ZM13.0795 7.42614H14.0795V6.42614H13.0795V7.42614ZM13.0795 9.34659V10.3466H14.0795V9.34659H13.0795ZM6.85227 9.34659H5.85227V10.3466H6.85227V9.34659ZM7.01705 11H4.38068V13H7.01705V11ZM5.32594 12.3263L9.34299 0.689954L7.45247 0.0373182L3.43542 11.6737L5.32594 12.3263ZM8.39773 1.36364H11.5682V-0.636364H8.39773V1.36364ZM10.6228 0.689541L14.6341 12.3259L16.5249 11.6741L12.5136 0.0377307L10.6228 0.689541ZM15.5795 11H12.9432V13H15.5795V11ZM13.8943 11.6912L10.9795 2.71391L9.07729 3.33154L11.9921 12.3088L13.8943 11.6912ZM10.0284 2.02273H9.9375V4.02273H10.0284V2.02273ZM8.98655 2.71337L6.0661 11.6906L7.96799 12.3094L10.8884 3.33209L8.98655 2.71337ZM6.85227 8.42614H13.0795V6.42614H6.85227V8.42614ZM12.0795 7.42614V9.34659H14.0795V7.42614H12.0795ZM13.0795 8.34659H6.85227V10.3466H13.0795V8.34659ZM7.85227 9.34659V7.42614H5.85227V9.34659H7.85227ZM16.9801 12H15.9801V13H16.9801V12ZM16.9801 0.363636V-0.636364H15.9801V0.363636H16.9801ZM23.821 0.835227L23.3695 1.72749L23.376 1.73074L23.821 0.835227ZM25.2472 2.15909L24.3782 2.654L24.3821 2.66081L25.2472 2.15909ZM25.2415 6.15909L26.0979 6.67531L26.0995 6.67273L25.2415 6.15909ZM23.7926 7.43182L23.3694 6.52577L23.3673 6.52675L23.7926 7.43182ZM18.4347 7.875H17.4347V8.875H18.4347V7.875ZM18.4347 5.89773V4.89773H17.4347V5.89773H18.4347ZM22.2812 5.70455L22.6643 6.62829L22.6643 6.62829L22.2812 5.70455ZM22.9744 5.125L22.118 4.60862L22.1125 4.61798L22.9744 5.125ZM22.9744 3.1875L22.1061 3.68367L22.1115 3.6929L22.9744 3.1875ZM22.2756 2.58523L21.8643 3.49673L21.8709 3.49974L21.8777 3.50265L22.2756 2.58523ZM19.4403 2.375V1.375H18.4403V2.375H19.4403ZM19.4403 12V13H20.4403V12H19.4403ZM23.2642 6.70455L24.1418 6.22523L23.8575 5.70455H23.2642V6.70455ZM26.1562 12V13H27.8418L27.0339 11.5207L26.1562 12ZM23.4403 12L22.5584 12.4713L22.8409 13H23.4403V12ZM20.6108 6.70455V5.70455H18.9427L19.7288 7.17582L20.6108 6.70455ZM17.9801 12V0.363636H15.9801V12H17.9801ZM16.9801 1.36364H21.571V-0.636364H16.9801V1.36364ZM21.571 1.36364C22.333 1.36364 22.9201 1.50004 23.3695 1.72747L24.2726 -0.0570133C23.4795 -0.458375 22.5666 -0.636364 21.571 -0.636364V1.36364ZM23.376 1.73074C23.8343 1.95851 24.1569 2.26536 24.3782 2.65399L26.1161 1.66419C25.6859 0.908878 25.0577 0.333153 24.2661 -0.060283L23.376 1.73074ZM24.3821 2.66081C24.6092 3.0523 24.7415 3.5417 24.7415 4.16477H26.7415C26.7415 3.24997 26.5442 2.40225 26.1122 1.65737L24.3821 2.66081ZM24.7415 4.16477C24.7415 4.79132 24.6075 5.27116 24.3835 5.64545L26.0995 6.67273C26.5421 5.93338 26.7415 5.08368 26.7415 4.16477H24.7415ZM24.385 5.64287C24.1626 6.0119 23.8374 6.30721 23.3694 6.52577L24.2158 8.33786C25.013 7.96552 25.6537 7.41234 26.0979 6.67531L24.385 5.64287ZM23.3673 6.52675C22.904 6.74445 22.2961 6.875 21.5085 6.875V8.875C22.5089 8.875 23.4236 8.71009 24.2179 8.33688L23.3673 6.52675ZM21.5085 6.875H18.4347V8.875H21.5085V6.875ZM19.4347 7.875V5.89773H17.4347V7.875H19.4347ZM18.4347 6.89773H21.1108V4.89773H18.4347V6.89773ZM21.1108 6.89773C21.6634 6.89773 22.1943 6.82316 22.6643 6.62829L21.8982 4.7808C21.747 4.84351 21.4976 4.89773 21.1108 4.89773V6.89773ZM22.6643 6.62829C23.1492 6.42723 23.5611 6.10002 23.8364 5.63202L22.1125 4.61798C22.0848 4.66513 22.0345 4.72429 21.8982 4.7808L22.6643 6.62829ZM23.8308 5.64135C24.1024 5.19085 24.2074 4.68051 24.2074 4.16477H22.2074C22.2074 4.41418 22.157 4.544 22.1181 4.60865L23.8308 5.64135ZM24.2074 4.16477C24.2074 3.6459 24.1028 3.1353 23.8373 2.6821L22.1115 3.6929C22.1567 3.77 22.2074 3.91092 22.2074 4.16477H24.2074ZM23.8427 2.69136C23.571 2.21598 23.1606 1.8791 22.6735 1.66781L21.8777 3.50265C22.0193 3.56408 22.0748 3.62871 22.1062 3.68364L23.8427 2.69136ZM22.6869 1.67372C22.207 1.45718 21.663 1.375 21.0994 1.375V3.375C21.4828 3.375 21.723 3.43297 21.8643 3.49673L22.6869 1.67372ZM21.0994 1.375H19.4403V3.375H21.0994V1.375ZM18.4403 2.375V12H20.4403V2.375H18.4403ZM19.4403 11H16.9801V13H19.4403V11ZM22.3866 7.18386L25.2786 12.4793L27.0339 11.5207L24.1418 6.22523L22.3866 7.18386ZM26.1562 11H23.4403V13H26.1562V11ZM24.3223 11.5287L21.4928 6.23327L19.7288 7.17582L22.5584 12.4713L24.3223 11.5287ZM20.6108 7.70455H23.2642V5.70455H20.6108V7.70455ZM37.7472 4.4375V5.4375H38.8721L38.7403 4.32034L37.7472 4.4375ZM35.2585 4.4375L34.2683 4.57729L34.3898 5.4375H35.2585V4.4375ZM34.9801 3.57955L34.1047 4.06298L34.1078 4.06855L34.9801 3.57955ZM34.4403 2.93182L33.8108 3.70875L33.8108 3.70875L34.4403 2.93182ZM33.679 2.52273L33.3627 3.47142L33.3665 3.47265L33.679 2.52273ZM31.179 2.82955L31.7304 3.66378L31.7353 3.66051L31.179 2.82955ZM30.1392 4.125L31.0558 4.52485L31.0568 4.52261L30.1392 4.125ZM30.1392 8.27273L29.2226 8.67258L29.2249 8.67773L30.1392 8.27273ZM31.1847 9.55114L30.6432 10.3919L30.6432 10.3919L31.1847 9.55114ZM33.6506 9.85227L33.3574 8.89621L33.3538 8.89733L33.6506 9.85227ZM34.4062 9.47159L35.0107 10.2683L35.0192 10.2617L34.4062 9.47159ZM34.9517 8.85227L34.0977 8.33187L34.0919 8.34173L34.9517 8.85227ZM35.2585 8.02273L35.2631 7.02274L34.4256 7.01891L34.2748 7.84279L35.2585 8.02273ZM37.7472 8.03409L38.74 8.15379L38.8743 7.03923L37.7517 7.0341L37.7472 8.03409ZM37.2642 9.57955L36.3767 9.11883L36.3753 9.12142L37.2642 9.57955ZM36.2358 10.9034L36.9058 11.6457L36.9062 11.6454L36.2358 10.9034ZM34.7017 11.8239L35.0555 12.7592L35.0587 12.758L34.7017 11.8239ZM29.9119 11.4545L29.4123 12.3208L29.4141 12.3218L29.9119 11.4545ZM27.9801 9.41477L27.0957 9.88145L27.0972 9.88439L27.9801 9.41477ZM27.9915 2.94318L28.8728 3.41572L28.8728 3.41572L27.9915 2.94318ZM29.9347 0.909091L30.4295 1.77808L30.4325 1.77634L29.9347 0.909091ZM34.571 0.488636L34.2585 1.43856L34.2604 1.43917L34.571 0.488636ZM36.1108 1.31818L35.4797 2.0939L35.4837 2.09711L36.1108 1.31818ZM37.2017 2.64205L36.3204 3.11463L36.3231 3.11956L37.2017 2.64205ZM37.7472 3.4375H35.2585V5.4375H37.7472V3.4375ZM36.2487 4.29771C36.1882 3.86941 36.0607 3.46218 35.8524 3.09054L34.1078 4.06855C34.1798 4.19691 34.2379 4.36165 34.2683 4.57729L36.2487 4.29771ZM35.8555 3.09612C35.6547 2.73249 35.3922 2.41607 35.0699 2.15488L33.8108 3.70875C33.9278 3.80362 34.0252 3.91902 34.1047 4.06297L35.8555 3.09612ZM35.0699 2.15489C34.7493 1.89509 34.3863 1.7027 33.9915 1.5728L33.3665 3.47265C33.5474 3.53215 33.692 3.61249 33.8108 3.70875L35.0699 2.15489ZM33.9952 1.57404C33.5983 1.44175 33.1816 1.38068 32.7528 1.38068V3.38068C32.9907 3.38068 33.1915 3.41431 33.3628 3.47141L33.9952 1.57404ZM32.7528 1.38068C31.9771 1.38068 31.2535 1.57621 30.6227 1.99858L31.7353 3.66051C31.9984 3.48439 32.3241 3.38068 32.7528 3.38068V1.38068ZM30.6275 1.99533C29.9948 2.4136 29.5327 3.00963 29.2216 3.72739L31.0568 4.52261C31.2382 4.104 31.4693 3.8364 31.7304 3.66376L30.6275 1.99533ZM29.2226 3.72515C28.9072 4.44829 28.7699 5.27811 28.7699 6.18182H30.7699C30.7699 5.47189 30.8788 4.9305 31.0558 4.52485L29.2226 3.72515ZM28.7699 6.18182C28.7699 7.10385 28.9058 7.9464 29.2226 8.67258L31.0558 7.87288C30.8802 7.47027 30.7699 6.91888 30.7699 6.18182H28.7699ZM29.2249 8.67773C29.5409 9.39121 30.0069 9.98207 30.6432 10.3919L31.7261 8.71042C31.4684 8.54445 31.2375 8.28303 31.0535 7.86773L29.2249 8.67773ZM30.6432 10.3919C31.2682 10.7944 31.9774 10.983 32.7358 10.983V8.98295C32.3199 8.98295 31.995 8.88361 31.7261 8.71042L30.6432 10.3919ZM32.7358 10.983C33.1538 10.983 33.56 10.9276 33.9474 10.8072L33.3538 8.89733C33.1805 8.95117 32.9769 8.98295 32.7358 8.98295V10.983ZM33.9438 10.8083C34.3314 10.6895 34.6904 10.5113 35.0106 10.2683L33.8019 8.6749C33.6828 8.76526 33.5379 8.84085 33.3574 8.89622L33.9438 10.8083ZM35.0192 10.2617C35.3394 10.0133 35.6045 9.71154 35.8116 9.36281L34.0919 8.34173C34.011 8.47786 33.9125 8.58902 33.7933 8.68151L35.0192 10.2617ZM35.8056 9.37264C36.0239 9.01455 36.1658 8.62025 36.2422 8.20267L34.2748 7.84279C34.2376 8.04641 34.175 8.20515 34.0978 8.3319L35.8056 9.37264ZM35.254 9.02272L37.7426 9.03408L37.7517 7.0341L35.2631 7.02274L35.254 9.02272ZM36.7543 7.91439C36.7049 8.32477 36.5812 8.72482 36.3767 9.11883L38.1518 10.0403C38.4624 9.44185 38.6607 8.8116 38.74 8.15379L36.7543 7.91439ZM36.3753 9.12142C36.1794 9.50151 35.9125 9.84784 35.5654 10.1614L36.9062 11.6454C37.4228 11.1787 37.8414 10.6424 38.1531 10.0377L36.3753 9.12142ZM35.5657 10.1611C35.2384 10.4566 34.8361 10.702 34.3447 10.8898L35.0587 12.758C35.7567 12.4912 36.3771 12.123 36.9058 11.6457L35.5657 10.1611ZM34.348 10.8885C33.8885 11.0623 33.3428 11.1591 32.696 11.1591V13.1591C33.5417 13.1591 34.3331 13.0324 35.0555 12.7592L34.348 10.8885ZM32.696 11.1591C31.8149 11.1591 31.0616 10.9615 30.4098 10.5873L29.4141 12.3218C30.3986 12.887 31.5014 13.1591 32.696 13.1591V11.1591ZM30.4115 10.5883C29.7714 10.2191 29.2551 9.68228 28.863 8.94516L27.0972 9.88439C27.6521 10.9276 28.4237 11.7506 29.4123 12.3208L30.4115 10.5883ZM28.8645 8.9481C28.4878 8.23409 28.2756 7.32525 28.2756 6.18182H26.2756C26.2756 7.56869 26.533 8.81516 27.0957 9.88145L28.8645 8.9481ZM28.2756 6.18182C28.2756 5.03633 28.4909 4.12795 28.8728 3.41572L27.1102 2.47065C26.5375 3.53871 26.2756 4.78943 26.2756 6.18182H28.2756ZM28.8728 3.41572C29.2679 2.67887 29.7869 2.14402 30.4295 1.77808L29.4398 0.0401059C28.4461 0.605978 27.6696 1.42719 27.1102 2.47065L28.8728 3.41572ZM30.4325 1.77634C31.0866 1.40086 31.8329 1.20455 32.696 1.20455V-0.795455C31.5137 -0.795455 30.4191 -0.522078 29.4368 0.0418381L30.4325 1.77634ZM32.696 1.20455C33.2759 1.20455 33.7943 1.28584 34.2585 1.43856L34.8835 -0.46129C34.1963 -0.687357 33.4646 -0.795455 32.696 -0.795455V1.20455ZM34.2604 1.43917C34.7302 1.59268 35.1334 1.81212 35.4797 2.09389L36.7419 0.542469C36.1943 0.0969674 35.571 -0.236623 34.8817 -0.461895L34.2604 1.43917ZM35.4837 2.09711C35.8227 2.37007 36.1013 2.70595 36.3204 3.11462L38.083 2.16947C37.7415 1.53268 37.2928 0.985994 36.7379 0.539248L35.4837 2.09711ZM36.3231 3.11956C36.5385 3.5159 36.6873 3.98905 36.754 4.55466L38.7403 4.32034C38.6479 3.53747 38.4331 2.81364 38.0803 2.16453L36.3231 3.11956ZM41.2983 12V13H42.0246L42.2492 12.3094L41.2983 12ZM38.6619 12L37.7167 11.6737L37.2588 13H38.6619V12ZM42.679 0.363636V-0.636364H41.9663L41.7337 0.0373182L42.679 0.363636ZM45.8494 0.363636L46.7948 0.0377307L46.5625 -0.636364H45.8494V0.363636ZM49.8608 12V13H51.2633L50.8062 11.6741L49.8608 12ZM47.2244 12L46.2733 12.3088L46.4977 13H47.2244V12ZM44.3097 3.02273L45.2608 2.71391L45.0364 2.02273H44.3097V3.02273ZM44.2188 3.02273V2.02273H43.4925L43.2678 2.71337L44.2188 3.02273ZM41.1335 7.42614V6.42614H40.1335V7.42614H41.1335ZM47.3608 7.42614H48.3608V6.42614H47.3608V7.42614ZM47.3608 9.34659V10.3466H48.3608V9.34659H47.3608ZM41.1335 9.34659H40.1335V10.3466H41.1335V9.34659ZM41.2983 11H38.6619V13H41.2983V11ZM39.6072 12.3263L43.6242 0.689954L41.7337 0.0373182L37.7167 11.6737L39.6072 12.3263ZM42.679 1.36364H45.8494V-0.636364H42.679V1.36364ZM44.904 0.689541L48.9154 12.3259L50.8062 11.6741L46.7948 0.0377307L44.904 0.689541ZM49.8608 11H47.2244V13H49.8608V11ZM48.1756 11.6912L45.2608 2.71391L43.3585 3.33154L46.2733 12.3088L48.1756 11.6912ZM44.3097 2.02273H44.2188V4.02273H44.3097V2.02273ZM43.2678 2.71337L40.3473 11.6906L42.2492 12.3094L45.1697 3.33209L43.2678 2.71337ZM41.1335 8.42614H47.3608V6.42614H41.1335V8.42614ZM46.3608 7.42614V9.34659H48.3608V7.42614H46.3608ZM47.3608 8.34659H41.1335V10.3466H47.3608V8.34659ZM42.1335 9.34659V7.42614H40.1335V9.34659H42.1335ZM51.2614 12H50.2614V13H51.2614V12ZM51.2614 0.363636V-0.636364H50.2614V0.363636H51.2614ZM58.4432 1.0625L57.9602 1.93814L57.9632 1.93979L58.4432 1.0625ZM60.392 3.05682L59.5063 3.52097L59.5079 3.524L60.392 3.05682ZM60.392 9.29545L59.507 8.82986L59.5055 8.83289L60.392 9.29545ZM58.4318 11.3011L57.9521 10.4237L57.9505 10.4246L58.4318 11.3011ZM53.7216 9.89205H52.7216V10.892H53.7216V9.89205ZM57.1193 9.50568L57.58 10.3932L57.5826 10.3919L57.1193 9.50568ZM58.2443 8.29545L57.3365 7.876L57.3353 7.8788L58.2443 8.29545ZM58.2443 4.0625L57.3352 4.47916L57.3377 4.48435L58.2443 4.0625ZM57.125 2.85795L57.5857 1.9704L57.5857 1.9704L57.125 2.85795ZM53.7216 2.47159V1.47159H52.7216V2.47159H53.7216ZM55.3864 11H51.2614V13H55.3864V11ZM52.2614 12V0.363636H50.2614V12H52.2614ZM51.2614 1.36364H55.4205V-0.636364H51.2614V1.36364ZM55.4205 1.36364C56.4578 1.36364 57.2919 1.56951 57.9602 1.93813L58.9262 0.186865C57.9051 -0.376327 56.724 -0.636364 55.4205 -0.636364V1.36364ZM57.9632 1.93979C58.6318 2.30553 59.1416 2.82509 59.5063 3.52097L61.2778 2.59267C60.7334 1.55369 59.944 0.743709 58.9231 0.185206L57.9632 1.93979ZM59.5079 3.524C59.8745 4.21782 60.0795 5.08778 60.0795 6.17045H62.0795C62.0795 4.83647 61.8263 3.63067 61.2762 2.58964L59.5079 3.524ZM60.0795 6.17045C60.0795 7.25732 59.8743 8.13172 59.507 8.82987L61.277 9.76104C61.8264 8.71676 62.0795 7.50783 62.0795 6.17045H60.0795ZM59.5055 8.83289C59.1414 9.53076 58.6286 10.0539 57.9521 10.4237L58.9115 12.1786C59.9396 11.6165 60.7336 10.8026 61.2786 9.75802L59.5055 8.83289ZM57.9505 10.4246C57.2788 10.7935 56.4368 11 55.3864 11V13C56.6996 13 57.8879 12.7406 58.9131 12.1777L57.9505 10.4246ZM53.7216 10.892H55.2841V8.89205H53.7216V10.892ZM55.2841 10.892C56.1251 10.892 56.9052 10.7435 57.58 10.3932L56.6586 8.61813C56.341 8.78297 55.8976 8.89205 55.2841 8.89205V10.892ZM57.5826 10.3919C58.2921 10.021 58.8172 9.4455 59.1534 8.71211L57.3353 7.8788C57.1714 8.23632 56.9465 8.46761 56.6561 8.61946L57.5826 10.3919ZM59.1521 8.71491C59.4871 7.98998 59.625 7.12452 59.625 6.17045H57.625C57.625 6.95124 57.5092 7.50244 57.3365 7.876L59.1521 8.71491ZM59.625 6.17045C59.625 5.22293 59.4868 4.36234 59.151 3.64065L57.3377 4.48435C57.5094 4.85357 57.625 5.39829 57.625 6.17045H59.625ZM59.1534 3.64585C58.8178 2.9137 58.2946 2.33837 57.5857 1.9704L56.6643 3.7455C56.9478 3.89269 57.1708 4.12039 57.3353 4.47915L59.1534 3.64585ZM57.5857 1.9704C56.9109 1.6201 56.1308 1.47159 55.2898 1.47159V3.47159C55.9033 3.47159 56.3467 3.58066 56.6643 3.7455L57.5857 1.9704ZM55.2898 1.47159H53.7216V3.47159H55.2898V1.47159ZM52.7216 2.47159V9.89205H54.7216V2.47159H52.7216ZM65.3622 0.363636H66.3622V-0.636364H65.3622V0.363636ZM65.3622 12V13H66.3622V12H65.3622ZM62.902 12H61.902V13H62.902V12ZM62.902 0.363636V-0.636364H61.902V0.363636H62.902ZM64.3622 0.363636V12H66.3622V0.363636H64.3622ZM65.3622 11H62.902V13H65.3622V11ZM63.902 12V0.363636H61.902V12H63.902ZM62.902 1.36364H65.3622V-0.636364H62.902V1.36364ZM69.392 12V13H70.1183L70.343 12.3094L69.392 12ZM66.7557 12L65.8104 11.6737L65.3526 13H66.7557V12ZM70.7727 0.363636V-0.636364H70.06L69.8275 0.0373182L70.7727 0.363636ZM73.9432 0.363636L74.8886 0.0377307L74.6562 -0.636364H73.9432V0.363636ZM77.9545 12V13H79.357L78.8999 11.6741L77.9545 12ZM75.3182 12L74.3671 12.3088L74.5915 13H75.3182V12ZM72.4034 3.02273L73.3545 2.71391L73.1301 2.02273H72.4034V3.02273ZM72.3125 3.02273V2.02273H71.5862L71.3616 2.71337L72.3125 3.02273ZM69.2273 7.42614V6.42614H68.2273V7.42614H69.2273ZM75.4545 7.42614H76.4545V6.42614H75.4545V7.42614ZM75.4545 9.34659V10.3466H76.4545V9.34659H75.4545ZM69.2273 9.34659H68.2273V10.3466H69.2273V9.34659ZM69.392 11H66.7557V13H69.392V11ZM67.7009 12.3263L71.718 0.689954L69.8275 0.0373182L65.8104 11.6737L67.7009 12.3263ZM70.7727 1.36364H73.9432V-0.636364H70.7727V1.36364ZM72.9978 0.689541L77.0091 12.3259L78.8999 11.6741L74.8886 0.0377307L72.9978 0.689541ZM77.9545 11H75.3182V13H77.9545V11ZM76.2693 11.6912L73.3545 2.71391L71.4523 3.33154L74.3671 12.3088L76.2693 11.6912ZM72.4034 2.02273H72.3125V4.02273H72.4034V2.02273ZM71.3616 2.71337L68.4411 11.6906L70.343 12.3094L73.2634 3.33209L71.3616 2.71337ZM69.2273 8.42614H75.4545V6.42614H69.2273V8.42614ZM74.4545 7.42614V9.34659H76.4545V7.42614H74.4545ZM75.4545 8.34659H69.2273V10.3466H75.4545V8.34659ZM70.2273 9.34659V7.42614H68.2273V9.34659H70.2273Z" fill="#88BC90" fill-opacity="0.9949" mask="url(#path-1-outside-1_29_11)"/>
</g>
<defs>
<filter id="filter0_d_29_11" x="0.380615" y="0.204559" width="81.574" height="19.9545" filterUnits="userSpaceOnUse" color-interpolation-filters="sRGB">
<feFlood flood-opacity="0" result="BackgroundImageFix"/>
<feColorMatrix in="SourceAlpha" type="matrix" values="0 0 0 0 0 0 0 0 0 0 0 0 0 0 0 0 0 0 127 0" result="hardAlpha"/>
<feOffset dy="4"/>
<feGaussianBlur stdDeviation="2"/>
<feComposite in2="hardAlpha" operator="out"/>
<feColorMatrix type="matrix" values="0 0 0 0 0 0 0 0 0 0 0 0 0 0 0 0 0 0 0.25 0"/>
<feBlend mode="normal" in2="BackgroundImageFix" result="effect1_dropShadow_29_11"/>
<feBlend mode="normal" in="SourceGraphic" in2="effect1_dropShadow_29_11" result="shape"/>
</filter>
<linearGradient id="paint0_linear_29_11" x1="79" y1="6.5" x2="4" y2="6.5" gradientUnits="userSpaceOnUse">
<stop offset="0.249" stop-color="#6975A6"/>
<stop offset="0.524" stop-color="#C47C1C" stop-opacity="0.63"/>
<stop offset="0.804" stop-color="#52887B" stop-opacity="0.99"/>
</linearGradient>
</defs>
</svg>
